<svg xmlns="http://www.w3.org/2000/svg" version="1.1" xmlns:xlink="http://www.w3.org/1999/xlink" xmlns:svgjs="http://svgjs.dev/svgjs" width="1440" height="560" preserveAspectRatio="none" viewBox="0 0 1440 560"><g mask="url(&quot;#SvgjsMask1121&quot;)" fill="none"><rect width="1440" height="560" x="0" y="0" fill="#0e2a47"></rect><path d="M22.64 216.24L87.59 253.74L87.59 328.74L22.64 366.24L-42.31 328.74L-42.31 253.74zM87.59 328.74L152.55 366.24L152.55 441.24L87.59 478.74L22.64 441.24L22.64 366.24zM87.59 553.74L152.55 591.24L152.55 666.24L87.59 703.74L22.64 666.24L22.64 591.24zM152.55 216.24L217.5 253.74L217.5 328.74L152.55 366.24L87.59 328.74L87.59 253.74zM282.45 -8.76L347.41 28.74L347.41 103.74L282.45 141.24L217.5 103.74L217.5 28.74zM282.45 216.24L347.41 253.74L347.41 328.74L282.45 366.24L217.5 328.74L217.5 253.74zM282.45 441.24L347.41 478.74L347.41 553.74L282.45 591.24L217.5 553.74L217.5 478.74zM347.41 553.74L412.36 591.24L412.36 666.24L347.41 703.74L282.45 666.24L282.45 591.24zM412.36 -8.76L477.32 28.74L477.32 103.74L412.36 141.24L347.41 103.74L347.41 28.74zM412.36 216.24L477.32 253.74L477.32 328.74L412.36 366.24L347.41 328.74L347.41 253.74zM477.32 328.74L542.27 366.24L542.27 441.24L477.32 478.74L412.36 441.24L412.36 366.24zM412.36 441.24L477.32 478.74L477.32 553.74L412.36 591.24L347.41 553.74L347.41 478.74zM542.27 -8.76L607.22 28.74L607.22 103.74L542.27 141.24L477.32 103.74L477.32 28.74zM542.27 216.24L607.22 253.74L607.22 328.74L542.27 366.24L477.32 328.74L477.32 253.74zM607.22 328.74L672.18 366.24L672.18 441.24L607.22 478.74L542.27 441.24L542.27 366.24zM737.13 103.74L802.09 141.24L802.09 216.24L737.13 253.74L672.18 216.24L672.18 141.24zM737.13 553.74L802.09 591.24L802.09 666.24L737.13 703.74L672.18 666.24L672.18 591.24zM802.08 -8.76L867.04 28.74L867.04 103.74L802.08 141.24L737.13 103.74L737.13 28.74zM867.04 103.74L931.99 141.24L931.99 216.24L867.04 253.74L802.08 216.24L802.08 141.24zM867.04 553.74L931.99 591.24L931.99 666.24L867.04 703.74L802.08 666.24L802.08 591.24zM931.99 -8.76L996.95 28.74L996.95 103.74L931.99 141.24L867.04 103.74L867.04 28.74zM996.95 328.74L1061.9 366.24L1061.9 441.24L996.95 478.74L931.99 441.24L931.99 366.24zM996.95 553.74L1061.9 591.24L1061.9 666.24L996.95 703.74L931.99 666.24L931.99 591.24zM1061.9 -8.76L1126.85 28.74L1126.85 103.74L1061.9 141.24L996.95 103.74L996.95 28.74zM1126.85 103.74L1191.81 141.24L1191.81 216.24L1126.85 253.74L1061.9 216.24L1061.9 141.24zM1191.81 216.24L1256.76 253.74L1256.76 328.74L1191.81 366.24L1126.85 328.74L1126.85 253.74zM1256.76 328.74L1321.71 366.24L1321.71 441.24L1256.76 478.74L1191.81 441.24L1191.81 366.24zM1256.76 553.74L1321.71 591.24L1321.71 666.24L1256.76 703.74L1191.81 666.24L1191.81 591.24zM1386.67 328.74L1451.62 366.24L1451.62 441.24L1386.67 478.74L1321.72 441.24L1321.72 366.24zM1386.67 553.74L1451.62 591.24L1451.62 666.24L1386.67 703.74L1321.72 666.24L1321.72 591.24zM1451.62 -8.76L1516.58 28.74L1516.58 103.74L1451.62 141.24L1386.67 103.74L1386.67 28.74zM1451.62 216.24L1516.58 253.74L1516.58 328.74L1451.62 366.24L1386.67 328.74L1386.67 253.74zM1516.58 328.74L1581.53 366.24L1581.53 441.24L1516.58 478.74L1451.62 441.24L1451.62 366.24zM1451.62 441.24L1516.58 478.74L1516.58 553.74L1451.62 591.24L1386.67 553.74L1386.67 478.74z" stroke="#03305d" stroke-width="2"></path><path d="M15.14 216.24 a7.5 7.5 0 1 0 15 0 a7.5 7.5 0 1 0 -15 0zM80.09 253.74 a7.5 7.5 0 1 0 15 0 a7.5 7.5 0 1 0 -15 0zM80.09 328.74 a7.5 7.5 0 1 0 15 0 a7.5 7.5 0 1 0 -15 0zM15.14 366.24 a7.5 7.5 0 1 0 15 0 a7.5 7.5 0 1 0 -15 0zM-49.81 328.74 a7.5 7.5 0 1 0 15 0 a7.5 7.5 0 1 0 -15 0zM-49.81 253.74 a7.5 7.5 0 1 0 15 0 a7.5 7.5 0 1 0 -15 0zM145.05 366.24 a7.5 7.5 0 1 0 15 0 a7.5 7.5 0 1 0 -15 0zM145.05 441.24 a7.5 7.5 0 1 0 15 0 a7.5 7.5 0 1 0 -15 0zM80.09 478.74 a7.5 7.5 0 1 0 15 0 a7.5 7.5 0 1 0 -15 0zM15.14 441.24 a7.5 7.5 0 1 0 15 0 a7.5 7.5 0 1 0 -15 0zM80.09 553.74 a7.5 7.5 0 1 0 15 0 a7.5 7.5 0 1 0 -15 0zM145.05 591.24 a7.5 7.5 0 1 0 15 0 a7.5 7.5 0 1 0 -15 0zM145.05 666.24 a7.5 7.5 0 1 0 15 0 a7.5 7.5 0 1 0 -15 0zM80.09 703.74 a7.5 7.5 0 1 0 15 0 a7.5 7.5 0 1 0 -15 0zM15.14 666.24 a7.5 7.5 0 1 0 15 0 a7.5 7.5 0 1 0 -15 0zM15.14 591.24 a7.5 7.5 0 1 0 15 0 a7.5 7.5 0 1 0 -15 0zM145.05 216.24 a7.5 7.5 0 1 0 15 0 a7.5 7.5 0 1 0 -15 0zM210 253.74 a7.5 7.5 0 1 0 15 0 a7.5 7.5 0 1 0 -15 0zM210 328.74 a7.5 7.5 0 1 0 15 0 a7.5 7.5 0 1 0 -15 0zM274.95 -8.76 a7.5 7.5 0 1 0 15 0 a7.5 7.5 0 1 0 -15 0zM339.91 28.74 a7.5 7.5 0 1 0 15 0 a7.5 7.5 0 1 0 -15 0zM339.91 103.74 a7.5 7.5 0 1 0 15 0 a7.5 7.5 0 1 0 -15 0zM274.95 141.24 a7.5 7.5 0 1 0 15 0 a7.5 7.5 0 1 0 -15 0zM210 103.74 a7.5 7.5 0 1 0 15 0 a7.5 7.5 0 1 0 -15 0zM210 28.74 a7.5 7.5 0 1 0 15 0 a7.5 7.5 0 1 0 -15 0zM274.95 216.24 a7.5 7.5 0 1 0 15 0 a7.5 7.5 0 1 0 -15 0zM339.91 253.74 a7.5 7.5 0 1 0 15 0 a7.5 7.5 0 1 0 -15 0zM339.91 328.74 a7.5 7.5 0 1 0 15 0 a7.5 7.5 0 1 0 -15 0zM274.95 366.24 a7.5 7.5 0 1 0 15 0 a7.5 7.5 0 1 0 -15 0zM274.95 441.24 a7.5 7.5 0 1 0 15 0 a7.5 7.5 0 1 0 -15 0zM339.91 478.74 a7.5 7.5 0 1 0 15 0 a7.5 7.5 0 1 0 -15 0zM339.91 553.74 a7.5 7.5 0 1 0 15 0 a7.5 7.5 0 1 0 -15 0zM274.95 591.24 a7.5 7.5 0 1 0 15 0 a7.5 7.5 0 1 0 -15 0zM210 553.74 a7.5 7.5 0 1 0 15 0 a7.5 7.5 0 1 0 -15 0zM210 478.74 a7.5 7.5 0 1 0 15 0 a7.5 7.5 0 1 0 -15 0zM404.86 591.24 a7.5 7.5 0 1 0 15 0 a7.5 7.5 0 1 0 -15 0zM404.86 666.24 a7.5 7.5 0 1 0 15 0 a7.5 7.5 0 1 0 -15 0zM339.91 703.74 a7.5 7.5 0 1 0 15 0 a7.5 7.5 0 1 0 -15 0zM274.95 666.24 a7.5 7.5 0 1 0 15 0 a7.5 7.5 0 1 0 -15 0zM404.86 -8.76 a7.5 7.5 0 1 0 15 0 a7.5 7.5 0 1 0 -15 0zM469.82 28.74 a7.5 7.5 0 1 0 15 0 a7.5 7.5 0 1 0 -15 0zM469.82 103.74 a7.5 7.5 0 1 0 15 0 a7.5 7.5 0 1 0 -15 0zM404.86 141.24 a7.5 7.5 0 1 0 15 0 a7.5 7.5 0 1 0 -15 0zM404.86 216.24 a7.5 7.5 0 1 0 15 0 a7.5 7.5 0 1 0 -15 0zM469.82 253.74 a7.5 7.5 0 1 0 15 0 a7.5 7.5 0 1 0 -15 0zM469.82 328.74 a7.5 7.5 0 1 0 15 0 a7.5 7.5 0 1 0 -15 0zM404.86 366.24 a7.5 7.5 0 1 0 15 0 a7.5 7.5 0 1 0 -15 0zM534.77 366.24 a7.5 7.5 0 1 0 15 0 a7.5 7.5 0 1 0 -15 0zM534.77 441.24 a7.5 7.5 0 1 0 15 0 a7.5 7.5 0 1 0 -15 0zM469.82 478.74 a7.5 7.5 0 1 0 15 0 a7.5 7.5 0 1 0 -15 0zM404.86 441.24 a7.5 7.5 0 1 0 15 0 a7.5 7.5 0 1 0 -15 0zM469.82 553.74 a7.5 7.5 0 1 0 15 0 a7.5 7.5 0 1 0 -15 0zM534.77 -8.76 a7.5 7.5 0 1 0 15 0 a7.5 7.5 0 1 0 -15 0zM599.72 28.74 a7.5 7.5 0 1 0 15 0 a7.5 7.5 0 1 0 -15 0zM599.72 103.74 a7.5 7.5 0 1 0 15 0 a7.5 7.5 0 1 0 -15 0zM534.77 141.24 a7.5 7.5 0 1 0 15 0 a7.5 7.5 0 1 0 -15 0zM534.77 216.24 a7.5 7.5 0 1 0 15 0 a7.5 7.5 0 1 0 -15 0zM599.72 253.74 a7.5 7.5 0 1 0 15 0 a7.5 7.5 0 1 0 -15 0zM599.72 328.74 a7.5 7.5 0 1 0 15 0 a7.5 7.5 0 1 0 -15 0zM664.68 366.24 a7.5 7.5 0 1 0 15 0 a7.5 7.5 0 1 0 -15 0zM664.68 441.24 a7.5 7.5 0 1 0 15 0 a7.5 7.5 0 1 0 -15 0zM599.72 478.74 a7.5 7.5 0 1 0 15 0 a7.5 7.5 0 1 0 -15 0zM729.63 103.74 a7.5 7.5 0 1 0 15 0 a7.5 7.5 0 1 0 -15 0zM794.59 141.24 a7.5 7.5 0 1 0 15 0 a7.5 7.5 0 1 0 -15 0zM794.59 216.24 a7.5 7.5 0 1 0 15 0 a7.5 7.5 0 1 0 -15 0zM729.63 253.74 a7.5 7.5 0 1 0 15 0 a7.5 7.5 0 1 0 -15 0zM664.68 216.24 a7.5 7.5 0 1 0 15 0 a7.5 7.5 0 1 0 -15 0zM664.68 141.24 a7.5 7.5 0 1 0 15 0 a7.5 7.5 0 1 0 -15 0zM729.63 553.74 a7.5 7.5 0 1 0 15 0 a7.5 7.5 0 1 0 -15 0zM794.59 591.24 a7.5 7.5 0 1 0 15 0 a7.5 7.5 0 1 0 -15 0zM794.59 666.24 a7.5 7.5 0 1 0 15 0 a7.5 7.5 0 1 0 -15 0zM729.63 703.74 a7.5 7.5 0 1 0 15 0 a7.5 7.5 0 1 0 -15 0zM664.68 666.24 a7.5 7.5 0 1 0 15 0 a7.5 7.5 0 1 0 -15 0zM664.68 591.24 a7.5 7.5 0 1 0 15 0 a7.5 7.5 0 1 0 -15 0zM794.58 -8.76 a7.5 7.5 0 1 0 15 0 a7.5 7.5 0 1 0 -15 0zM859.54 28.74 a7.5 7.5 0 1 0 15 0 a7.5 7.5 0 1 0 -15 0zM859.54 103.74 a7.5 7.5 0 1 0 15 0 a7.5 7.5 0 1 0 -15 0zM794.58 141.24 a7.5 7.5 0 1 0 15 0 a7.5 7.5 0 1 0 -15 0zM729.63 28.74 a7.5 7.5 0 1 0 15 0 a7.5 7.5 0 1 0 -15 0zM924.49 141.24 a7.5 7.5 0 1 0 15 0 a7.5 7.5 0 1 0 -15 0zM924.49 216.24 a7.5 7.5 0 1 0 15 0 a7.5 7.5 0 1 0 -15 0zM859.54 253.74 a7.5 7.5 0 1 0 15 0 a7.5 7.5 0 1 0 -15 0zM794.58 216.24 a7.5 7.5 0 1 0 15 0 a7.5 7.5 0 1 0 -15 0zM859.54 553.74 a7.5 7.5 0 1 0 15 0 a7.5 7.5 0 1 0 -15 0zM924.49 591.24 a7.5 7.5 0 1 0 15 0 a7.5 7.5 0 1 0 -15 0zM924.49 666.24 a7.5 7.5 0 1 0 15 0 a7.5 7.5 0 1 0 -15 0zM859.54 703.74 a7.5 7.5 0 1 0 15 0 a7.5 7.5 0 1 0 -15 0zM794.58 666.24 a7.5 7.5 0 1 0 15 0 a7.5 7.5 0 1 0 -15 0zM794.58 591.24 a7.5 7.5 0 1 0 15 0 a7.5 7.5 0 1 0 -15 0zM924.49 -8.76 a7.5 7.5 0 1 0 15 0 a7.5 7.5 0 1 0 -15 0zM989.45 28.74 a7.5 7.5 0 1 0 15 0 a7.5 7.5 0 1 0 -15 0zM989.45 103.74 a7.5 7.5 0 1 0 15 0 a7.5 7.5 0 1 0 -15 0zM989.45 328.74 a7.5 7.5 0 1 0 15 0 a7.5 7.5 0 1 0 -15 0zM1054.4 366.24 a7.5 7.5 0 1 0 15 0 a7.5 7.5 0 1 0 -15 0zM1054.4 441.24 a7.5 7.5 0 1 0 15 0 a7.5 7.5 0 1 0 -15 0zM989.45 478.74 a7.5 7.5 0 1 0 15 0 a7.5 7.5 0 1 0 -15 0zM924.49 441.24 a7.5 7.5 0 1 0 15 0 a7.5 7.5 0 1 0 -15 0zM924.49 366.24 a7.5 7.5 0 1 0 15 0 a7.5 7.5 0 1 0 -15 0zM989.45 553.74 a7.5 7.5 0 1 0 15 0 a7.5 7.5 0 1 0 -15 0zM1054.4 591.24 a7.5 7.5 0 1 0 15 0 a7.5 7.5 0 1 0 -15 0zM1054.4 666.24 a7.5 7.5 0 1 0 15 0 a7.5 7.5 0 1 0 -15 0zM989.45 703.74 a7.5 7.5 0 1 0 15 0 a7.5 7.5 0 1 0 -15 0zM1054.4 -8.76 a7.5 7.5 0 1 0 15 0 a7.5 7.5 0 1 0 -15 0zM1119.35 28.74 a7.5 7.5 0 1 0 15 0 a7.5 7.5 0 1 0 -15 0zM1119.35 103.74 a7.5 7.5 0 1 0 15 0 a7.5 7.5 0 1 0 -15 0zM1054.4 141.24 a7.5 7.5 0 1 0 15 0 a7.5 7.5 0 1 0 -15 0zM1184.31 141.24 a7.5 7.5 0 1 0 15 0 a7.5 7.5 0 1 0 -15 0zM1184.31 216.24 a7.5 7.5 0 1 0 15 0 a7.5 7.5 0 1 0 -15 0zM1119.35 253.74 a7.5 7.5 0 1 0 15 0 a7.5 7.5 0 1 0 -15 0zM1054.4 216.24 a7.5 7.5 0 1 0 15 0 a7.5 7.5 0 1 0 -15 0zM1249.26 253.74 a7.5 7.5 0 1 0 15 0 a7.5 7.5 0 1 0 -15 0zM1249.26 328.74 a7.5 7.5 0 1 0 15 0 a7.5 7.5 0 1 0 -15 0zM1184.31 366.24 a7.5 7.5 0 1 0 15 0 a7.5 7.5 0 1 0 -15 0zM1119.35 328.74 a7.5 7.5 0 1 0 15 0 a7.5 7.5 0 1 0 -15 0zM1314.21 366.24 a7.5 7.5 0 1 0 15 0 a7.5 7.5 0 1 0 -15 0zM1314.21 441.24 a7.5 7.5 0 1 0 15 0 a7.5 7.5 0 1 0 -15 0zM1249.26 478.74 a7.5 7.5 0 1 0 15 0 a7.5 7.5 0 1 0 -15 0zM1184.31 441.24 a7.5 7.5 0 1 0 15 0 a7.5 7.5 0 1 0 -15 0zM1249.26 553.74 a7.5 7.5 0 1 0 15 0 a7.5 7.5 0 1 0 -15 0zM1314.21 591.24 a7.5 7.5 0 1 0 15 0 a7.5 7.5 0 1 0 -15 0zM1314.21 666.24 a7.5 7.5 0 1 0 15 0 a7.5 7.5 0 1 0 -15 0zM1249.26 703.74 a7.5 7.5 0 1 0 15 0 a7.5 7.5 0 1 0 -15 0zM1184.31 666.24 a7.5 7.5 0 1 0 15 0 a7.5 7.5 0 1 0 -15 0zM1184.31 591.24 a7.5 7.5 0 1 0 15 0 a7.5 7.5 0 1 0 -15 0zM1379.17 328.74 a7.5 7.5 0 1 0 15 0 a7.5 7.5 0 1 0 -15 0zM1444.12 366.24 a7.5 7.5 0 1 0 15 0 a7.5 7.5 0 1 0 -15 0zM1444.12 441.24 a7.5 7.5 0 1 0 15 0 a7.5 7.5 0 1 0 -15 0zM1379.17 478.74 a7.5 7.5 0 1 0 15 0 a7.5 7.5 0 1 0 -15 0zM1314.22 441.24 a7.5 7.5 0 1 0 15 0 a7.5 7.5 0 1 0 -15 0zM1314.22 366.24 a7.5 7.5 0 1 0 15 0 a7.5 7.5 0 1 0 -15 0zM1379.17 553.74 a7.5 7.5 0 1 0 15 0 a7.5 7.5 0 1 0 -15 0zM1444.12 591.24 a7.5 7.5 0 1 0 15 0 a7.5 7.5 0 1 0 -15 0zM1444.12 666.24 a7.5 7.5 0 1 0 15 0 a7.5 7.5 0 1 0 -15 0zM1379.17 703.74 a7.5 7.5 0 1 0 15 0 a7.5 7.5 0 1 0 -15 0zM1314.22 666.24 a7.5 7.5 0 1 0 15 0 a7.5 7.5 0 1 0 -15 0zM1314.22 591.24 a7.5 7.5 0 1 0 15 0 a7.5 7.5 0 1 0 -15 0zM1444.12 -8.76 a7.5 7.5 0 1 0 15 0 a7.5 7.5 0 1 0 -15 0zM1509.08 28.74 a7.5 7.5 0 1 0 15 0 a7.5 7.5 0 1 0 -15 0zM1509.08 103.74 a7.5 7.5 0 1 0 15 0 a7.5 7.5 0 1 0 -15 0zM1444.12 141.24 a7.5 7.5 0 1 0 15 0 a7.5 7.5 0 1 0 -15 0zM1379.17 103.74 a7.5 7.5 0 1 0 15 0 a7.5 7.5 0 1 0 -15 0zM1379.17 28.74 a7.5 7.5 0 1 0 15 0 a7.5 7.5 0 1 0 -15 0zM1444.12 216.24 a7.5 7.5 0 1 0 15 0 a7.5 7.5 0 1 0 -15 0zM1509.08 253.74 a7.5 7.5 0 1 0 15 0 a7.5 7.5 0 1 0 -15 0zM1509.08 328.74 a7.5 7.5 0 1 0 15 0 a7.5 7.5 0 1 0 -15 0zM1379.17 253.74 a7.5 7.5 0 1 0 15 0 a7.5 7.5 0 1 0 -15 0zM1574.03 366.24 a7.5 7.5 0 1 0 15 0 a7.5 7.5 0 1 0 -15 0zM1574.03 441.24 a7.5 7.5 0 1 0 15 0 a7.5 7.5 0 1 0 -15 0zM1509.08 478.74 a7.5 7.5 0 1 0 15 0 a7.5 7.5 0 1 0 -15 0zM1509.08 553.74 a7.5 7.5 0 1 0 15 0 a7.5 7.5 0 1 0 -15 0z" fill="#03305d"></path><path d="M294.95 -12.47L363.37 27.03L363.37 106.03L294.95 145.53L226.53 106.03L226.53 27.03zM431.79 224.53L500.21 264.03L500.21 343.03L431.79 382.53L363.37 343.03L363.37 264.03zM500.21 580.03L568.62 619.53L568.62 698.53L500.21 738.03L431.79 698.53L431.79 619.53zM637.04 106.03L705.46 145.53L705.46 224.53L637.04 264.03L568.62 224.53L568.62 145.53zM637.04 343.03L705.46 382.53L705.46 461.53L637.04 501.03L568.62 461.53L568.62 382.53zM705.46 224.53L773.88 264.03L773.88 343.03L705.46 382.53L637.04 343.03L637.04 264.03zM705.46 461.53L773.88 501.03L773.88 580.03L705.46 619.53L637.04 580.03L637.04 501.03zM1047.55 106.03L1115.97 145.53L1115.97 224.53L1047.55 264.03L979.13 224.53L979.13 145.53zM979.13 224.53L1047.55 264.03L1047.55 343.03L979.13 382.53L910.71 343.03L910.71 264.03zM1115.97 -12.47L1184.39 27.03L1184.39 106.03L1115.97 145.53L1047.55 106.03L1047.55 27.03zM1321.22 106.03L1389.64 145.53L1389.64 224.53L1321.22 264.03L1252.8 224.53L1252.8 145.53z" stroke="rgba(6, 80, 156, 0.93)" stroke-width="2"></path></g><defs><mask id="SvgjsMask1121"><rect width="1440" height="560" fill="#ffffff"></rect></mask></defs></svg>